<mxfile host="app.diagrams.net" modified="2023-12-20T13:48:39.484Z" agent="Mozilla/5.0 (Windows NT 10.0; Win64; x64) AppleWebKit/537.36 (KHTML, like Gecko) Chrome/118.0.5993.771 YaBrowser/23.11.2.771 Yowser/2.5 Safari/537.36" etag="hSXL6hLvSds49aJNMsnC" version="22.1.11" type="device">
  <diagram name="Страница — 1" id="m_ASN54kYRJgGJN2Seoo">
    <mxGraphModel dx="792" dy="452" grid="1" gridSize="10" guides="1" tooltips="1" connect="1" arrows="1" fold="1" page="1" pageScale="1" pageWidth="827" pageHeight="1169" math="0" shadow="0">
      <root>
        <mxCell id="0" />
        <mxCell id="1" parent="0" />
        <mxCell id="GlCFzImtALrrM4cY4W9O-1" value="Создать задачу" style="rounded=0;whiteSpace=wrap;html=1;" vertex="1" parent="1">
          <mxGeometry x="311" y="260" width="206" height="140" as="geometry" />
        </mxCell>
        <mxCell id="GlCFzImtALrrM4cY4W9O-2" value="" style="endArrow=classic;html=1;rounded=0;" edge="1" parent="1" target="GlCFzImtALrrM4cY4W9O-1">
          <mxGeometry width="50" height="50" relative="1" as="geometry">
            <mxPoint x="414" y="120" as="sourcePoint" />
            <mxPoint x="460" y="150" as="targetPoint" />
          </mxGeometry>
        </mxCell>
        <mxCell id="GlCFzImtALrrM4cY4W9O-3" value="ИС" style="edgeLabel;html=1;align=center;verticalAlign=middle;resizable=0;points=[];" vertex="1" connectable="0" parent="GlCFzImtALrrM4cY4W9O-2">
          <mxGeometry x="-0.249" y="1" relative="1" as="geometry">
            <mxPoint x="15" as="offset" />
          </mxGeometry>
        </mxCell>
        <mxCell id="GlCFzImtALrrM4cY4W9O-4" value="" style="endArrow=classic;html=1;rounded=0;" edge="1" parent="1">
          <mxGeometry width="50" height="50" relative="1" as="geometry">
            <mxPoint x="180" y="290" as="sourcePoint" />
            <mxPoint x="310" y="290" as="targetPoint" />
          </mxGeometry>
        </mxCell>
        <mxCell id="GlCFzImtALrrM4cY4W9O-5" value="список подчиненных" style="edgeLabel;html=1;align=center;verticalAlign=middle;resizable=0;points=[];" vertex="1" connectable="0" parent="GlCFzImtALrrM4cY4W9O-4">
          <mxGeometry x="-0.249" y="1" relative="1" as="geometry">
            <mxPoint x="15" y="-9" as="offset" />
          </mxGeometry>
        </mxCell>
        <mxCell id="GlCFzImtALrrM4cY4W9O-6" value="" style="endArrow=classic;html=1;rounded=0;" edge="1" parent="1">
          <mxGeometry width="50" height="50" relative="1" as="geometry">
            <mxPoint x="181" y="320" as="sourcePoint" />
            <mxPoint x="311" y="320" as="targetPoint" />
          </mxGeometry>
        </mxCell>
        <mxCell id="GlCFzImtALrrM4cY4W9O-7" value="определение сроков задачи" style="edgeLabel;html=1;align=center;verticalAlign=middle;resizable=0;points=[];" vertex="1" connectable="0" parent="GlCFzImtALrrM4cY4W9O-6">
          <mxGeometry x="-0.249" y="1" relative="1" as="geometry">
            <mxPoint y="-9" as="offset" />
          </mxGeometry>
        </mxCell>
        <mxCell id="GlCFzImtALrrM4cY4W9O-8" value="" style="endArrow=classic;html=1;rounded=0;" edge="1" parent="1">
          <mxGeometry width="50" height="50" relative="1" as="geometry">
            <mxPoint x="181" y="350" as="sourcePoint" />
            <mxPoint x="311" y="350" as="targetPoint" />
          </mxGeometry>
        </mxCell>
        <mxCell id="GlCFzImtALrrM4cY4W9O-9" value="определение содержания задачи" style="edgeLabel;html=1;align=center;verticalAlign=middle;resizable=0;points=[];" vertex="1" connectable="0" parent="GlCFzImtALrrM4cY4W9O-8">
          <mxGeometry x="-0.249" y="1" relative="1" as="geometry">
            <mxPoint x="-20" y="-9" as="offset" />
          </mxGeometry>
        </mxCell>
        <mxCell id="GlCFzImtALrrM4cY4W9O-10" value="" style="endArrow=classic;html=1;rounded=0;" edge="1" parent="1">
          <mxGeometry width="50" height="50" relative="1" as="geometry">
            <mxPoint x="181" y="380" as="sourcePoint" />
            <mxPoint x="311" y="380" as="targetPoint" />
          </mxGeometry>
        </mxCell>
        <mxCell id="GlCFzImtALrrM4cY4W9O-11" value="Создание" style="edgeLabel;html=1;align=center;verticalAlign=middle;resizable=0;points=[];" vertex="1" connectable="0" parent="GlCFzImtALrrM4cY4W9O-10">
          <mxGeometry x="-0.249" y="1" relative="1" as="geometry">
            <mxPoint x="15" y="-9" as="offset" />
          </mxGeometry>
        </mxCell>
        <mxCell id="GlCFzImtALrrM4cY4W9O-12" value="" style="endArrow=classic;html=1;rounded=0;entryX=0.138;entryY=1.016;entryDx=0;entryDy=0;entryPerimeter=0;" edge="1" parent="1" target="GlCFzImtALrrM4cY4W9O-1">
          <mxGeometry width="50" height="50" relative="1" as="geometry">
            <mxPoint x="340" y="490" as="sourcePoint" />
            <mxPoint x="390" y="440" as="targetPoint" />
          </mxGeometry>
        </mxCell>
        <mxCell id="GlCFzImtALrrM4cY4W9O-13" value="руководитель" style="edgeLabel;html=1;align=center;verticalAlign=middle;resizable=0;points=[];" vertex="1" connectable="0" parent="GlCFzImtALrrM4cY4W9O-12">
          <mxGeometry x="0.1913" y="-1" relative="1" as="geometry">
            <mxPoint x="-41" as="offset" />
          </mxGeometry>
        </mxCell>
        <mxCell id="GlCFzImtALrrM4cY4W9O-14" value="" style="endArrow=classic;html=1;rounded=0;entryX=0.138;entryY=1.016;entryDx=0;entryDy=0;entryPerimeter=0;" edge="1" parent="1">
          <mxGeometry width="50" height="50" relative="1" as="geometry">
            <mxPoint x="431" y="488" as="sourcePoint" />
            <mxPoint x="430" y="400" as="targetPoint" />
          </mxGeometry>
        </mxCell>
        <mxCell id="GlCFzImtALrrM4cY4W9O-15" value="подчиненный" style="edgeLabel;html=1;align=center;verticalAlign=middle;resizable=0;points=[];" vertex="1" connectable="0" parent="GlCFzImtALrrM4cY4W9O-14">
          <mxGeometry x="0.1913" y="-1" relative="1" as="geometry">
            <mxPoint x="-41" as="offset" />
          </mxGeometry>
        </mxCell>
        <mxCell id="GlCFzImtALrrM4cY4W9O-16" value="" style="endArrow=classic;html=1;rounded=0;exitX=1.02;exitY=0.429;exitDx=0;exitDy=0;exitPerimeter=0;" edge="1" parent="1" source="GlCFzImtALrrM4cY4W9O-1">
          <mxGeometry width="50" height="50" relative="1" as="geometry">
            <mxPoint x="570" y="370" as="sourcePoint" />
            <mxPoint x="620" y="320" as="targetPoint" />
          </mxGeometry>
        </mxCell>
        <mxCell id="GlCFzImtALrrM4cY4W9O-17" value="передача задачи в распоряжение" style="edgeLabel;html=1;align=center;verticalAlign=middle;resizable=0;points=[];" vertex="1" connectable="0" parent="GlCFzImtALrrM4cY4W9O-16">
          <mxGeometry x="0.4336" y="-2" relative="1" as="geometry">
            <mxPoint x="18" y="-22" as="offset" />
          </mxGeometry>
        </mxCell>
      </root>
    </mxGraphModel>
  </diagram>
</mxfile>
